<?xml version="1.0" encoding="UTF-8" standalone="no"?>
<!-- Created with Inkscape (http://www.inkscape.org/) -->

<svg
   width="11mm"
   height="11.000009mm"
   viewBox="0 0 11 11.000009"
   version="1.1"
   id="svg1"
   xml:space="preserve"
   xmlns:xlink="http://www.w3.org/1999/xlink"
   xmlns="http://www.w3.org/2000/svg"
   xmlns:svg="http://www.w3.org/2000/svg"><defs
     id="defs1"><linearGradient
       id="linearGradient6"><stop
         style="stop-color:#0e690e;stop-opacity:1;"
         offset="0"
         id="stop5" /><stop
         style="stop-color:#79d879;stop-opacity:1;"
         offset="1"
         id="stop6" /></linearGradient><linearGradient
       id="linearGradient9"><stop
         style="stop-color:#008000;stop-opacity:1;"
         offset="0"
         id="stop9" /><stop
         style="stop-color:#008000;stop-opacity:0.51445085;"
         offset="1"
         id="stop10" /></linearGradient><linearGradient
       xlink:href="#linearGradient6"
       id="linearGradient10"
       x1="99.626068"
       y1="153.46378"
       x2="111.28488"
       y2="142.32465"
       gradientUnits="userSpaceOnUse"
       gradientTransform="matrix(1.0031079,0,0,0.97721017,-99.88064,-139.32153)" /><linearGradient
       xlink:href="#linearGradient6"
       id="linearGradient13"
       x1="99.626068"
       y1="153.46378"
       x2="111.28488"
       y2="142.32465"
       gradientUnits="userSpaceOnUse"
       gradientTransform="matrix(1.0031079,0,0,0.97721017,-99.88064,-139.32153)" /><linearGradient
       xlink:href="#linearGradient9"
       id="linearGradient14"
       x1="104.74009"
       y1="150.73372"
       x2="106.43956"
       y2="150.73372"
       gradientUnits="userSpaceOnUse"
       gradientTransform="matrix(1.0031079,0,0,0.97721017,-99.88064,-139.32153)" /><linearGradient
       xlink:href="#linearGradient6"
       id="linearGradient15"
       x1="99.626068"
       y1="153.46378"
       x2="111.28488"
       y2="142.32465"
       gradientUnits="userSpaceOnUse"
       gradientTransform="matrix(1.0031079,0,0,0.97721017,-99.88064,-139.32153)" /></defs><g
     id="layer1"
     style="display:inline"><ellipse
       style="opacity:1;fill:url(#linearGradient10);fill-opacity:1;stroke:none;stroke-width:0.258528;stroke-opacity:1"
       id="path4"
       cx="5.5"
       cy="5.6962519"
       rx="5.5"
       ry="5.1513801" /><path
       style="display:inline;opacity:1;fill:#000000;fill-opacity:1;stroke:url(#linearGradient13);stroke-width:0.560383;stroke-linecap:square;stroke-linejoin:round;stroke-dasharray:none;stroke-dashoffset:0;paint-order:stroke fill markers"
       d="m 0.32849525,1.5837603 c 0,0 3.44923565,5.9057497 3.90557635,6.8225975 C 4.7331597,9.4091025 4.2001911,9.0738998 3.7005221,8.9846415 2.9397317,8.8487409 3.110828,8.7329611 1.65876,8.8919042 0.20669404,9.0508474 0.6593834,10.691456 2.0574652,10.718778 3.1504971,10.740179 5.1739154,10.418706 5.2881216,9.6716789 5.4023181,8.9246602 4.751794,7.9984508 4.3560993,7.2599243 3.645268,5.9332443 2.7846463,4.6489362 2.4876018,3.9469866 2.3424483,3.586308 2.2532555,3.2326557 2.6285058,3.0896116 3.003756,2.9465677 4.5863412,2.5333153 4.5863412,2.4379494 l 0.00774,-2.15776797 z"
       id="path1" /><ellipse
       style="opacity:1;fill:#000000;fill-opacity:1;stroke:url(#linearGradient14);stroke-width:0.327638;stroke-linecap:square;stroke-linejoin:round;stroke-dasharray:none;stroke-dashoffset:0;stroke-opacity:0;paint-order:stroke fill markers"
       id="path2"
       cx="6.0373511"
       cy="7.9770002"
       rx="0.68640018"
       ry="0.75510859" /><path
       style="opacity:1;fill:#000000;fill-opacity:1;stroke:url(#linearGradient15);stroke-width:0.560383;stroke-linecap:square;stroke-linejoin:round;stroke-dasharray:none;stroke-dashoffset:0;paint-order:stroke fill markers"
       d="M 6.9252059,6.8807374 C 6.8569609,6.9175783 6.0513515,6.7727557 5.928046,6.6645884 5.8008684,6.5531864 6.0368603,5.8705562 6.1553257,5.6426024 6.2949132,5.3743094 6.7496277,4.8691309 7.1266881,4.7079303 7.4879506,4.553492 7.8633654,4.4071352 8.1028324,4.3422484 8.3422608,4.2773617 8.7663473,4.0945355 8.9551389,3.9387486 9.1440079,3.7830009 9.4799084,3.4744664 9.5509799,3.1338891 9.6219353,2.7933216 9.58699,2.6078372 9.4757653,2.3421339 9.3645212,2.0764402 9.0827811,1.8424083 8.810237,1.7302538 8.5406647,1.6323178 8.240784,1.5726982 7.7323351,1.7713943 7.4490655,1.8820047 7.1746144,2.1885165 7.0713081,2.383939 6.9680308,2.5793321 6.6750229,2.5717294 6.4794649,2.397913 6.2839553,2.2242238 6.074545,2.0323876 6.3586085,1.6656896 6.7303932,1.1858011 7.7287244,0.66025752 8.6467105,0.8000572 9.3780444,0.94709801 9.8431746,1.2743266 10.101015,1.6225945 10.393248,2.0172311 10.588854,2.4823049 10.438367,3.3194711 10.232093,4.4676147 9.3450448,4.8473782 8.7743043,5.0751951 8.2108917,5.3000903 7.6623381,5.3470551 7.2904372,5.8126761 6.9429205,6.247818 7.0047765,6.8372516 6.9248671,6.8802977 Z"
       id="path11" /></g></svg>
