<?xml version="1.0" encoding="UTF-8" standalone="no"?>
<svg
   fill="none"
   height="15"
   viewBox="0 0 15 15"
   width="15"
   version="1.1"
   id="svg2"
   sodipodi:docname="settings.svg"
   inkscape:version="1.4 (86a8ad7, 2024-10-11)"
   xmlns:inkscape="http://www.inkscape.org/namespaces/inkscape"
   xmlns:sodipodi="http://sodipodi.sourceforge.net/DTD/sodipodi-0.dtd"
   xmlns="http://www.w3.org/2000/svg"
   xmlns:svg="http://www.w3.org/2000/svg">
  <defs
     id="defs2" />
  <sodipodi:namedview
     id="namedview2"
     pagecolor="#ffffff"
     bordercolor="#000000"
     borderopacity="0.25"
     inkscape:showpageshadow="2"
     inkscape:pageopacity="0.0"
     inkscape:pagecheckerboard="0"
     inkscape:deskcolor="#d1d1d1"
     inkscape:zoom="53.8"
     inkscape:cx="7.4907063"
     inkscape:cy="7.4907063"
     inkscape:window-width="1147"
     inkscape:window-height="1032"
     inkscape:window-x="-84"
     inkscape:window-y="46"
     inkscape:window-maximized="0"
     inkscape:current-layer="g2" />
  <g
     clip-rule="evenodd"
     fill="#151515"
     fill-rule="evenodd"
     id="g2">
    <path
       d="m10 7.50001c0 1.38072-1.11928 2.49999-2.49999 2.49999s-2.5-1.11927-2.5-2.49999c0-1.38071 1.11929-2.5 2.5-2.5s2.49999 1.11929 2.49999 2.5zm-.99999 0c0 .82843-.67157 1.5-1.5 1.5-.82842 0-1.5-.67157-1.5-1.5 0-.82842.67158-1.5 1.5-1.5.82843 0 1.5.67158 1.5 1.5z"
       id="path1"
       style="fill:#138484;fill-opacity:1" />
    <path
       d="m8.92908 3.05724c-.34403-1.52302-2.5141-1.52302-2.85813 0-.07078.31333-.43034.46227-.70195.29076-1.3202-.83367-2.85467.7008-2.021 2.021.17151.27161.02257.63117-.29076.70195-1.52302.34403-1.52302 2.5141 0 2.85813.31333.07077.46227.43034.29076.70195-.83367 1.32017.7008 2.85467 2.021 2.02097.27161-.1715.63117-.0225.70195.2908.34403 1.523 2.5141 1.523 2.85813 0 .07077-.3133.43034-.4623.70195-.2908 1.32017.8337 2.85467-.7008 2.02097-2.02097-.1715-.27161-.0225-.63118.2908-.70195 1.523-.34403 1.523-2.5141 0-2.85813-.3133-.07078-.4623-.43034-.2908-.70195.8337-1.3202-.7008-2.85467-2.02097-2.021-.27161.17151-.63118.02257-.70195-.29076zm-1.8827.22034c.1092-.48347.79806-.48347.90727 0 .22296.98707 1.35568 1.45625 2.21135.91595.419-.26464.9061.22246.6415.64154-.5403.85562-.0711 1.98834.916 2.21131.4834.1092.4834.79806 0 .90727-.9871.22296-1.4563 1.35568-.916 2.21135.2646.419-.2225.9061-.6415.6415-.85567-.5403-1.98839-.0711-2.21135.916-.10921.4834-.79807.4834-.90727 0-.22297-.9871-1.35569-1.4563-2.21131-.916-.41908.2646-.90618-.2225-.64154-.6415.5403-.85567.07112-1.98839-.91595-2.21135-.48347-.10921-.48347-.79807 0-.90727.98707-.22297 1.45625-1.35569.91595-2.21131-.26464-.41908.22246-.90618.64154-.64154.85562.5403 1.98834.07112 2.21131-.91595z"
       id="path2"
       style="fill:#138484;fill-opacity:1" />
  </g>
</svg>
